<svg width="472" height="480" viewBox="0 0 472 480" fill="none" xmlns="http://www.w3.org/2000/svg">
<path d="M134.4 95.2H308.8C317.6 95.2 324.8 88 324.8 79.2V47.2C324.8 20.8 303.2 0 277.6 0H166.4C140 0 119.2 21.6 119.2 47.2V79.2C118.4 88 125.6 95.2 134.4 95.2Z" fill="#464B4F"/>
<path d="M396 39.2H380C375.2 39.2 372 42.4 372 47.2V79.2C372 114.4 343.2 142.4 308.8 142.4H134.4C99.2 142.4 71.2 113.6 71.2 79.2V47.2C71.2 42.4 68 39.2 63.2 39.2H47.2C20.8 39.2 0 60.8 0 86.4V411.2C0 437.6 21.6 458.4 47.2 458.4H207.2C229.6 458.4 232 440 232 433.6V262.4C232 244 242.4 240 248 240H420.8C440 240 443.2 223.2 443.2 217.6V88C444 60.8 422.4 39.2 396 39.2Z" fill="#464B4F"/>
<path d="M463.2 323.2H288.8C284 323.2 280 319.2 280 314.4V296.8C280 292 284 288 288.8 288H463.2C468 288 472 292 472 296.8V314.4C472 319.2 468 323.2 463.2 323.2ZM463.2 401.6H288.8C284 401.6 280 397.6 280 392.8V375.2C280 370.4 284 366.4 288.8 366.4H463.2C468 366.4 472 370.4 472 375.2V392.8C472 397.6 468 401.6 463.2 401.6ZM463.2 480H288.8C284 480 280 476 280 471.2V453.6C280 448.8 284 444.8 288.8 444.8H463.2C468 444.8 472 448.8 472 453.6V471.2C472 476 468 480 463.2 480Z" fill="#464B4F"/>
</svg>
